<mxfile host="Electron" agent="Mozilla/5.0 (Windows NT 10.0; Win64; x64) AppleWebKit/537.36 (KHTML, like Gecko) draw.io/26.2.2 Chrome/134.0.6998.178 Electron/35.1.2 Safari/537.36" version="26.2.2">
  <diagram id="R2lEEEUBdFMjLlhIrx00" name="Page-1">
    <mxGraphModel dx="774" dy="1609" grid="1" gridSize="10" guides="1" tooltips="1" connect="1" arrows="1" fold="1" page="1" pageScale="1" pageWidth="850" pageHeight="1100" math="0" shadow="0" extFonts="Permanent Marker^https://fonts.googleapis.com/css?family=Permanent+Marker">
      <root>
        <mxCell id="0" />
        <mxCell id="1" parent="0" />
        <mxCell id="C-vyLk0tnHw3VtMMgP7b-2" value="Cuentas" style="shape=table;startSize=30;container=1;collapsible=1;childLayout=tableLayout;fixedRows=1;rowLines=0;fontStyle=1;align=center;resizeLast=1;" parent="1" vertex="1">
          <mxGeometry x="80" y="460" width="250" height="160" as="geometry" />
        </mxCell>
        <mxCell id="C-vyLk0tnHw3VtMMgP7b-3" value="" style="shape=partialRectangle;collapsible=0;dropTarget=0;pointerEvents=0;fillColor=none;points=[[0,0.5],[1,0.5]];portConstraint=eastwest;top=0;left=0;right=0;bottom=1;" parent="C-vyLk0tnHw3VtMMgP7b-2" vertex="1">
          <mxGeometry y="30" width="250" height="30" as="geometry" />
        </mxCell>
        <mxCell id="C-vyLk0tnHw3VtMMgP7b-4" value="PK" style="shape=partialRectangle;overflow=hidden;connectable=0;fillColor=none;top=0;left=0;bottom=0;right=0;fontStyle=1;" parent="C-vyLk0tnHw3VtMMgP7b-3" vertex="1">
          <mxGeometry width="30" height="30" as="geometry">
            <mxRectangle width="30" height="30" as="alternateBounds" />
          </mxGeometry>
        </mxCell>
        <mxCell id="C-vyLk0tnHw3VtMMgP7b-5" value="CBU" style="shape=partialRectangle;overflow=hidden;connectable=0;fillColor=none;top=0;left=0;bottom=0;right=0;align=left;spacingLeft=6;fontStyle=5;" parent="C-vyLk0tnHw3VtMMgP7b-3" vertex="1">
          <mxGeometry x="30" width="220" height="30" as="geometry">
            <mxRectangle width="220" height="30" as="alternateBounds" />
          </mxGeometry>
        </mxCell>
        <mxCell id="C-vyLk0tnHw3VtMMgP7b-6" value="" style="shape=partialRectangle;collapsible=0;dropTarget=0;pointerEvents=0;fillColor=none;points=[[0,0.5],[1,0.5]];portConstraint=eastwest;top=0;left=0;right=0;bottom=0;" parent="C-vyLk0tnHw3VtMMgP7b-2" vertex="1">
          <mxGeometry y="60" width="250" height="30" as="geometry" />
        </mxCell>
        <mxCell id="C-vyLk0tnHw3VtMMgP7b-7" value="" style="shape=partialRectangle;overflow=hidden;connectable=0;fillColor=none;top=0;left=0;bottom=0;right=0;" parent="C-vyLk0tnHw3VtMMgP7b-6" vertex="1">
          <mxGeometry width="30" height="30" as="geometry">
            <mxRectangle width="30" height="30" as="alternateBounds" />
          </mxGeometry>
        </mxCell>
        <mxCell id="C-vyLk0tnHw3VtMMgP7b-8" value="Nombre" style="shape=partialRectangle;overflow=hidden;connectable=0;fillColor=none;top=0;left=0;bottom=0;right=0;align=left;spacingLeft=6;" parent="C-vyLk0tnHw3VtMMgP7b-6" vertex="1">
          <mxGeometry x="30" width="220" height="30" as="geometry">
            <mxRectangle width="220" height="30" as="alternateBounds" />
          </mxGeometry>
        </mxCell>
        <mxCell id="C-vyLk0tnHw3VtMMgP7b-9" value="" style="shape=partialRectangle;collapsible=0;dropTarget=0;pointerEvents=0;fillColor=none;points=[[0,0.5],[1,0.5]];portConstraint=eastwest;top=0;left=0;right=0;bottom=0;" parent="C-vyLk0tnHw3VtMMgP7b-2" vertex="1">
          <mxGeometry y="90" width="250" height="30" as="geometry" />
        </mxCell>
        <mxCell id="C-vyLk0tnHw3VtMMgP7b-10" value="" style="shape=partialRectangle;overflow=hidden;connectable=0;fillColor=none;top=0;left=0;bottom=0;right=0;" parent="C-vyLk0tnHw3VtMMgP7b-9" vertex="1">
          <mxGeometry width="30" height="30" as="geometry">
            <mxRectangle width="30" height="30" as="alternateBounds" />
          </mxGeometry>
        </mxCell>
        <mxCell id="C-vyLk0tnHw3VtMMgP7b-11" value="Teléfono" style="shape=partialRectangle;overflow=hidden;connectable=0;fillColor=none;top=0;left=0;bottom=0;right=0;align=left;spacingLeft=6;" parent="C-vyLk0tnHw3VtMMgP7b-9" vertex="1">
          <mxGeometry x="30" width="220" height="30" as="geometry">
            <mxRectangle width="220" height="30" as="alternateBounds" />
          </mxGeometry>
        </mxCell>
        <mxCell id="blIayxbLOWrPhSkYNWvh-57" style="shape=partialRectangle;collapsible=0;dropTarget=0;pointerEvents=0;fillColor=none;points=[[0,0.5],[1,0.5]];portConstraint=eastwest;top=0;left=0;right=0;bottom=0;" parent="C-vyLk0tnHw3VtMMgP7b-2" vertex="1">
          <mxGeometry y="120" width="250" height="30" as="geometry" />
        </mxCell>
        <mxCell id="blIayxbLOWrPhSkYNWvh-58" value="FK" style="shape=partialRectangle;overflow=hidden;connectable=0;fillColor=none;top=0;left=0;bottom=0;right=0;" parent="blIayxbLOWrPhSkYNWvh-57" vertex="1">
          <mxGeometry width="30" height="30" as="geometry">
            <mxRectangle width="30" height="30" as="alternateBounds" />
          </mxGeometry>
        </mxCell>
        <mxCell id="blIayxbLOWrPhSkYNWvh-59" value="N°Suc" style="shape=partialRectangle;overflow=hidden;connectable=0;fillColor=none;top=0;left=0;bottom=0;right=0;align=left;spacingLeft=6;" parent="blIayxbLOWrPhSkYNWvh-57" vertex="1">
          <mxGeometry x="30" width="220" height="30" as="geometry">
            <mxRectangle width="220" height="30" as="alternateBounds" />
          </mxGeometry>
        </mxCell>
        <mxCell id="C-vyLk0tnHw3VtMMgP7b-23" value="Sucursales" style="shape=table;startSize=30;container=1;collapsible=1;childLayout=tableLayout;fixedRows=1;rowLines=0;fontStyle=1;align=center;resizeLast=1;" parent="1" vertex="1">
          <mxGeometry x="420" y="450" width="250" height="130" as="geometry" />
        </mxCell>
        <mxCell id="C-vyLk0tnHw3VtMMgP7b-24" value="" style="shape=partialRectangle;collapsible=0;dropTarget=0;pointerEvents=0;fillColor=none;points=[[0,0.5],[1,0.5]];portConstraint=eastwest;top=0;left=0;right=0;bottom=1;" parent="C-vyLk0tnHw3VtMMgP7b-23" vertex="1">
          <mxGeometry y="30" width="250" height="30" as="geometry" />
        </mxCell>
        <mxCell id="C-vyLk0tnHw3VtMMgP7b-25" value="PK" style="shape=partialRectangle;overflow=hidden;connectable=0;fillColor=none;top=0;left=0;bottom=0;right=0;fontStyle=1;" parent="C-vyLk0tnHw3VtMMgP7b-24" vertex="1">
          <mxGeometry width="30" height="30" as="geometry">
            <mxRectangle width="30" height="30" as="alternateBounds" />
          </mxGeometry>
        </mxCell>
        <mxCell id="C-vyLk0tnHw3VtMMgP7b-26" value="N°Suc" style="shape=partialRectangle;overflow=hidden;connectable=0;fillColor=none;top=0;left=0;bottom=0;right=0;align=left;spacingLeft=6;fontStyle=5;" parent="C-vyLk0tnHw3VtMMgP7b-24" vertex="1">
          <mxGeometry x="30" width="220" height="30" as="geometry">
            <mxRectangle width="220" height="30" as="alternateBounds" />
          </mxGeometry>
        </mxCell>
        <mxCell id="C-vyLk0tnHw3VtMMgP7b-27" value="" style="shape=partialRectangle;collapsible=0;dropTarget=0;pointerEvents=0;fillColor=none;points=[[0,0.5],[1,0.5]];portConstraint=eastwest;top=0;left=0;right=0;bottom=0;" parent="C-vyLk0tnHw3VtMMgP7b-23" vertex="1">
          <mxGeometry y="60" width="250" height="30" as="geometry" />
        </mxCell>
        <mxCell id="C-vyLk0tnHw3VtMMgP7b-28" value="" style="shape=partialRectangle;overflow=hidden;connectable=0;fillColor=none;top=0;left=0;bottom=0;right=0;" parent="C-vyLk0tnHw3VtMMgP7b-27" vertex="1">
          <mxGeometry width="30" height="30" as="geometry">
            <mxRectangle width="30" height="30" as="alternateBounds" />
          </mxGeometry>
        </mxCell>
        <mxCell id="C-vyLk0tnHw3VtMMgP7b-29" value="Localidad" style="shape=partialRectangle;overflow=hidden;connectable=0;fillColor=none;top=0;left=0;bottom=0;right=0;align=left;spacingLeft=6;" parent="C-vyLk0tnHw3VtMMgP7b-27" vertex="1">
          <mxGeometry x="30" width="220" height="30" as="geometry">
            <mxRectangle width="220" height="30" as="alternateBounds" />
          </mxGeometry>
        </mxCell>
        <mxCell id="blIayxbLOWrPhSkYNWvh-54" style="shape=partialRectangle;collapsible=0;dropTarget=0;pointerEvents=0;fillColor=none;points=[[0,0.5],[1,0.5]];portConstraint=eastwest;top=0;left=0;right=0;bottom=0;" parent="C-vyLk0tnHw3VtMMgP7b-23" vertex="1">
          <mxGeometry y="90" width="250" height="30" as="geometry" />
        </mxCell>
        <mxCell id="blIayxbLOWrPhSkYNWvh-55" style="shape=partialRectangle;overflow=hidden;connectable=0;fillColor=none;top=0;left=0;bottom=0;right=0;" parent="blIayxbLOWrPhSkYNWvh-54" vertex="1">
          <mxGeometry width="30" height="30" as="geometry">
            <mxRectangle width="30" height="30" as="alternateBounds" />
          </mxGeometry>
        </mxCell>
        <mxCell id="blIayxbLOWrPhSkYNWvh-56" value="Ubicación" style="shape=partialRectangle;overflow=hidden;connectable=0;fillColor=none;top=0;left=0;bottom=0;right=0;align=left;spacingLeft=6;" parent="blIayxbLOWrPhSkYNWvh-54" vertex="1">
          <mxGeometry x="30" width="220" height="30" as="geometry">
            <mxRectangle width="220" height="30" as="alternateBounds" />
          </mxGeometry>
        </mxCell>
        <mxCell id="blIayxbLOWrPhSkYNWvh-5" value="Cuentas" style="shape=table;startSize=30;container=1;collapsible=0;childLayout=tableLayout;strokeColor=default;fontSize=16;fontStyle=1" parent="1" vertex="1">
          <mxGeometry x="90" y="90" width="367" height="241" as="geometry" />
        </mxCell>
        <mxCell id="blIayxbLOWrPhSkYNWvh-30" style="shape=tableRow;horizontal=0;startSize=0;swimlaneHead=0;swimlaneBody=0;strokeColor=inherit;top=0;left=0;bottom=0;right=0;collapsible=0;dropTarget=0;fillColor=none;points=[[0,0.5],[1,0.5]];portConstraint=eastwest;fontSize=16;" parent="blIayxbLOWrPhSkYNWvh-5" vertex="1">
          <mxGeometry y="30" width="367" height="50" as="geometry" />
        </mxCell>
        <mxCell id="blIayxbLOWrPhSkYNWvh-31" value="&lt;u&gt;&lt;b&gt;CBU&lt;/b&gt;&lt;/u&gt;" style="shape=partialRectangle;html=1;whiteSpace=wrap;connectable=0;strokeColor=inherit;overflow=hidden;fillColor=none;top=0;left=0;bottom=0;right=0;pointerEvents=1;fontSize=16;" parent="blIayxbLOWrPhSkYNWvh-30" vertex="1">
          <mxGeometry width="87" height="50" as="geometry">
            <mxRectangle width="87" height="50" as="alternateBounds" />
          </mxGeometry>
        </mxCell>
        <mxCell id="blIayxbLOWrPhSkYNWvh-32" value="&lt;b&gt;Nombre&lt;/b&gt;" style="shape=partialRectangle;html=1;whiteSpace=wrap;connectable=0;strokeColor=inherit;overflow=hidden;fillColor=none;top=0;left=0;bottom=0;right=0;pointerEvents=1;fontSize=16;" parent="blIayxbLOWrPhSkYNWvh-30" vertex="1">
          <mxGeometry x="87" width="86" height="50" as="geometry">
            <mxRectangle width="86" height="50" as="alternateBounds" />
          </mxGeometry>
        </mxCell>
        <mxCell id="blIayxbLOWrPhSkYNWvh-33" value="&lt;b&gt;Teléfono&lt;/b&gt;" style="shape=partialRectangle;html=1;whiteSpace=wrap;connectable=0;strokeColor=inherit;overflow=hidden;fillColor=none;top=0;left=0;bottom=0;right=0;pointerEvents=1;fontSize=16;" parent="blIayxbLOWrPhSkYNWvh-30" vertex="1">
          <mxGeometry x="173" width="97" height="50" as="geometry">
            <mxRectangle width="97" height="50" as="alternateBounds" />
          </mxGeometry>
        </mxCell>
        <mxCell id="8OeubPXYCS4JBSS8x12q-1" value="&lt;u&gt;&lt;b&gt;N°Suc&lt;/b&gt;&lt;/u&gt;" style="shape=partialRectangle;html=1;whiteSpace=wrap;connectable=0;strokeColor=inherit;overflow=hidden;fillColor=none;top=0;left=0;bottom=0;right=0;pointerEvents=1;fontSize=16;" vertex="1" parent="blIayxbLOWrPhSkYNWvh-30">
          <mxGeometry x="270" width="97" height="50" as="geometry">
            <mxRectangle width="97" height="50" as="alternateBounds" />
          </mxGeometry>
        </mxCell>
        <mxCell id="blIayxbLOWrPhSkYNWvh-6" value="" style="shape=tableRow;horizontal=0;startSize=0;swimlaneHead=0;swimlaneBody=0;strokeColor=inherit;top=0;left=0;bottom=0;right=0;collapsible=0;dropTarget=0;fillColor=none;points=[[0,0.5],[1,0.5]];portConstraint=eastwest;fontSize=16;" parent="blIayxbLOWrPhSkYNWvh-5" vertex="1">
          <mxGeometry y="80" width="367" height="53" as="geometry" />
        </mxCell>
        <mxCell id="blIayxbLOWrPhSkYNWvh-7" value="&amp;nbsp;78998742&lt;span style=&quot;white-space: pre;&quot;&gt;&#x9;&lt;/span&gt;" style="shape=partialRectangle;html=1;whiteSpace=wrap;connectable=0;strokeColor=inherit;overflow=hidden;fillColor=none;top=0;left=0;bottom=0;right=0;pointerEvents=1;fontSize=16;align=center;" parent="blIayxbLOWrPhSkYNWvh-6" vertex="1">
          <mxGeometry width="87" height="53" as="geometry">
            <mxRectangle width="87" height="53" as="alternateBounds" />
          </mxGeometry>
        </mxCell>
        <mxCell id="blIayxbLOWrPhSkYNWvh-8" value="Jorge&amp;nbsp; &amp;nbsp; &amp;nbsp;Ramos&lt;span style=&quot;white-space: pre;&quot;&gt;&#x9;&lt;/span&gt;" style="shape=partialRectangle;html=1;whiteSpace=wrap;connectable=0;strokeColor=inherit;overflow=hidden;fillColor=none;top=0;left=0;bottom=0;right=0;pointerEvents=1;fontSize=16;align=center;" parent="blIayxbLOWrPhSkYNWvh-6" vertex="1">
          <mxGeometry x="87" width="86" height="53" as="geometry">
            <mxRectangle width="86" height="53" as="alternateBounds" />
          </mxGeometry>
        </mxCell>
        <mxCell id="blIayxbLOWrPhSkYNWvh-9" value="1155498795" style="shape=partialRectangle;html=1;whiteSpace=wrap;connectable=0;strokeColor=inherit;overflow=hidden;fillColor=none;top=0;left=0;bottom=0;right=0;pointerEvents=1;fontSize=16;" parent="blIayxbLOWrPhSkYNWvh-6" vertex="1">
          <mxGeometry x="173" width="97" height="53" as="geometry">
            <mxRectangle width="97" height="53" as="alternateBounds" />
          </mxGeometry>
        </mxCell>
        <mxCell id="8OeubPXYCS4JBSS8x12q-2" value="132" style="shape=partialRectangle;html=1;whiteSpace=wrap;connectable=0;strokeColor=inherit;overflow=hidden;fillColor=none;top=0;left=0;bottom=0;right=0;pointerEvents=1;fontSize=16;" vertex="1" parent="blIayxbLOWrPhSkYNWvh-6">
          <mxGeometry x="270" width="97" height="53" as="geometry">
            <mxRectangle width="97" height="53" as="alternateBounds" />
          </mxGeometry>
        </mxCell>
        <mxCell id="blIayxbLOWrPhSkYNWvh-10" value="" style="shape=tableRow;horizontal=0;startSize=0;swimlaneHead=0;swimlaneBody=0;strokeColor=inherit;top=0;left=0;bottom=0;right=0;collapsible=0;dropTarget=0;fillColor=none;points=[[0,0.5],[1,0.5]];portConstraint=eastwest;fontSize=16;" parent="blIayxbLOWrPhSkYNWvh-5" vertex="1">
          <mxGeometry y="133" width="367" height="54" as="geometry" />
        </mxCell>
        <mxCell id="blIayxbLOWrPhSkYNWvh-11" value="87945786" style="shape=partialRectangle;html=1;whiteSpace=wrap;connectable=0;strokeColor=inherit;overflow=hidden;fillColor=none;top=0;left=0;bottom=0;right=0;pointerEvents=1;fontSize=16;" parent="blIayxbLOWrPhSkYNWvh-10" vertex="1">
          <mxGeometry width="87" height="54" as="geometry">
            <mxRectangle width="87" height="54" as="alternateBounds" />
          </mxGeometry>
        </mxCell>
        <mxCell id="blIayxbLOWrPhSkYNWvh-12" value="Gustavo Pérez" style="shape=partialRectangle;html=1;whiteSpace=wrap;connectable=0;strokeColor=inherit;overflow=hidden;fillColor=none;top=0;left=0;bottom=0;right=0;pointerEvents=1;fontSize=16;" parent="blIayxbLOWrPhSkYNWvh-10" vertex="1">
          <mxGeometry x="87" width="86" height="54" as="geometry">
            <mxRectangle width="86" height="54" as="alternateBounds" />
          </mxGeometry>
        </mxCell>
        <mxCell id="blIayxbLOWrPhSkYNWvh-13" value="1154987751" style="shape=partialRectangle;html=1;whiteSpace=wrap;connectable=0;strokeColor=inherit;overflow=hidden;fillColor=none;top=0;left=0;bottom=0;right=0;pointerEvents=1;fontSize=16;" parent="blIayxbLOWrPhSkYNWvh-10" vertex="1">
          <mxGeometry x="173" width="97" height="54" as="geometry">
            <mxRectangle width="97" height="54" as="alternateBounds" />
          </mxGeometry>
        </mxCell>
        <mxCell id="8OeubPXYCS4JBSS8x12q-3" value="321" style="shape=partialRectangle;html=1;whiteSpace=wrap;connectable=0;strokeColor=inherit;overflow=hidden;fillColor=none;top=0;left=0;bottom=0;right=0;pointerEvents=1;fontSize=16;" vertex="1" parent="blIayxbLOWrPhSkYNWvh-10">
          <mxGeometry x="270" width="97" height="54" as="geometry">
            <mxRectangle width="97" height="54" as="alternateBounds" />
          </mxGeometry>
        </mxCell>
        <mxCell id="blIayxbLOWrPhSkYNWvh-47" style="shape=tableRow;horizontal=0;startSize=0;swimlaneHead=0;swimlaneBody=0;strokeColor=inherit;top=0;left=0;bottom=0;right=0;collapsible=0;dropTarget=0;fillColor=none;points=[[0,0.5],[1,0.5]];portConstraint=eastwest;fontSize=16;" parent="blIayxbLOWrPhSkYNWvh-5" vertex="1">
          <mxGeometry y="187" width="367" height="54" as="geometry" />
        </mxCell>
        <mxCell id="blIayxbLOWrPhSkYNWvh-48" value="77879856" style="shape=partialRectangle;html=1;whiteSpace=wrap;connectable=0;strokeColor=inherit;overflow=hidden;fillColor=none;top=0;left=0;bottom=0;right=0;pointerEvents=1;fontSize=16;" parent="blIayxbLOWrPhSkYNWvh-47" vertex="1">
          <mxGeometry width="87" height="54" as="geometry">
            <mxRectangle width="87" height="54" as="alternateBounds" />
          </mxGeometry>
        </mxCell>
        <mxCell id="blIayxbLOWrPhSkYNWvh-49" value="Roberto Gómez&amp;nbsp;" style="shape=partialRectangle;html=1;whiteSpace=wrap;connectable=0;strokeColor=inherit;overflow=hidden;fillColor=none;top=0;left=0;bottom=0;right=0;pointerEvents=1;fontSize=16;" parent="blIayxbLOWrPhSkYNWvh-47" vertex="1">
          <mxGeometry x="87" width="86" height="54" as="geometry">
            <mxRectangle width="86" height="54" as="alternateBounds" />
          </mxGeometry>
        </mxCell>
        <mxCell id="blIayxbLOWrPhSkYNWvh-50" value="1154879952" style="shape=partialRectangle;html=1;whiteSpace=wrap;connectable=0;strokeColor=inherit;overflow=hidden;fillColor=none;top=0;left=0;bottom=0;right=0;pointerEvents=1;fontSize=16;" parent="blIayxbLOWrPhSkYNWvh-47" vertex="1">
          <mxGeometry x="173" width="97" height="54" as="geometry">
            <mxRectangle width="97" height="54" as="alternateBounds" />
          </mxGeometry>
        </mxCell>
        <mxCell id="8OeubPXYCS4JBSS8x12q-4" value="098" style="shape=partialRectangle;html=1;whiteSpace=wrap;connectable=0;strokeColor=inherit;overflow=hidden;fillColor=none;top=0;left=0;bottom=0;right=0;pointerEvents=1;fontSize=16;" vertex="1" parent="blIayxbLOWrPhSkYNWvh-47">
          <mxGeometry x="270" width="97" height="54" as="geometry">
            <mxRectangle width="97" height="54" as="alternateBounds" />
          </mxGeometry>
        </mxCell>
        <mxCell id="blIayxbLOWrPhSkYNWvh-34" value="Sucursales" style="shape=table;startSize=30;container=1;collapsible=0;childLayout=tableLayout;strokeColor=default;fontSize=16;fontStyle=1" parent="1" vertex="1">
          <mxGeometry x="470" y="80" width="259" height="242" as="geometry" />
        </mxCell>
        <mxCell id="blIayxbLOWrPhSkYNWvh-35" style="shape=tableRow;horizontal=0;startSize=0;swimlaneHead=0;swimlaneBody=0;strokeColor=inherit;top=0;left=0;bottom=0;right=0;collapsible=0;dropTarget=0;fillColor=none;points=[[0,0.5],[1,0.5]];portConstraint=eastwest;fontSize=16;" parent="blIayxbLOWrPhSkYNWvh-34" vertex="1">
          <mxGeometry y="30" width="259" height="50" as="geometry" />
        </mxCell>
        <mxCell id="blIayxbLOWrPhSkYNWvh-36" value="&lt;u&gt;&lt;b&gt;N°Suc&lt;/b&gt;&lt;/u&gt;" style="shape=partialRectangle;html=1;whiteSpace=wrap;connectable=0;strokeColor=inherit;overflow=hidden;fillColor=none;top=0;left=0;bottom=0;right=0;pointerEvents=1;fontSize=16;" parent="blIayxbLOWrPhSkYNWvh-35" vertex="1">
          <mxGeometry width="87" height="50" as="geometry">
            <mxRectangle width="87" height="50" as="alternateBounds" />
          </mxGeometry>
        </mxCell>
        <mxCell id="blIayxbLOWrPhSkYNWvh-37" value="&lt;b&gt;Localidad&lt;/b&gt;" style="shape=partialRectangle;html=1;whiteSpace=wrap;connectable=0;strokeColor=inherit;overflow=hidden;fillColor=none;top=0;left=0;bottom=0;right=0;pointerEvents=1;fontSize=16;" parent="blIayxbLOWrPhSkYNWvh-35" vertex="1">
          <mxGeometry x="87" width="86" height="50" as="geometry">
            <mxRectangle width="86" height="50" as="alternateBounds" />
          </mxGeometry>
        </mxCell>
        <mxCell id="blIayxbLOWrPhSkYNWvh-51" value="&lt;b&gt;Ubicación&lt;/b&gt;" style="shape=partialRectangle;html=1;whiteSpace=wrap;connectable=0;strokeColor=inherit;overflow=hidden;fillColor=none;top=0;left=0;bottom=0;right=0;pointerEvents=1;fontSize=16;" parent="blIayxbLOWrPhSkYNWvh-35" vertex="1">
          <mxGeometry x="173" width="86" height="50" as="geometry">
            <mxRectangle width="86" height="50" as="alternateBounds" />
          </mxGeometry>
        </mxCell>
        <mxCell id="blIayxbLOWrPhSkYNWvh-39" value="" style="shape=tableRow;horizontal=0;startSize=0;swimlaneHead=0;swimlaneBody=0;strokeColor=inherit;top=0;left=0;bottom=0;right=0;collapsible=0;dropTarget=0;fillColor=none;points=[[0,0.5],[1,0.5]];portConstraint=eastwest;fontSize=16;" parent="blIayxbLOWrPhSkYNWvh-34" vertex="1">
          <mxGeometry y="80" width="259" height="52" as="geometry" />
        </mxCell>
        <mxCell id="blIayxbLOWrPhSkYNWvh-40" value="321" style="shape=partialRectangle;html=1;whiteSpace=wrap;connectable=0;strokeColor=inherit;overflow=hidden;fillColor=none;top=0;left=0;bottom=0;right=0;pointerEvents=1;fontSize=16;" parent="blIayxbLOWrPhSkYNWvh-39" vertex="1">
          <mxGeometry width="87" height="52" as="geometry">
            <mxRectangle width="87" height="52" as="alternateBounds" />
          </mxGeometry>
        </mxCell>
        <mxCell id="blIayxbLOWrPhSkYNWvh-41" value="Almagro" style="shape=partialRectangle;html=1;whiteSpace=wrap;connectable=0;strokeColor=inherit;overflow=hidden;fillColor=none;top=0;left=0;bottom=0;right=0;pointerEvents=1;fontSize=16;" parent="blIayxbLOWrPhSkYNWvh-39" vertex="1">
          <mxGeometry x="87" width="86" height="52" as="geometry">
            <mxRectangle width="86" height="52" as="alternateBounds" />
          </mxGeometry>
        </mxCell>
        <mxCell id="blIayxbLOWrPhSkYNWvh-52" value="Lavalle 3864" style="shape=partialRectangle;html=1;whiteSpace=wrap;connectable=0;strokeColor=inherit;overflow=hidden;fillColor=none;top=0;left=0;bottom=0;right=0;pointerEvents=1;fontSize=16;" parent="blIayxbLOWrPhSkYNWvh-39" vertex="1">
          <mxGeometry x="173" width="86" height="52" as="geometry">
            <mxRectangle width="86" height="52" as="alternateBounds" />
          </mxGeometry>
        </mxCell>
        <mxCell id="blIayxbLOWrPhSkYNWvh-43" value="" style="shape=tableRow;horizontal=0;startSize=0;swimlaneHead=0;swimlaneBody=0;strokeColor=inherit;top=0;left=0;bottom=0;right=0;collapsible=0;dropTarget=0;fillColor=none;points=[[0,0.5],[1,0.5]];portConstraint=eastwest;fontSize=16;" parent="blIayxbLOWrPhSkYNWvh-34" vertex="1">
          <mxGeometry y="132" width="259" height="55" as="geometry" />
        </mxCell>
        <mxCell id="blIayxbLOWrPhSkYNWvh-44" value="132" style="shape=partialRectangle;html=1;whiteSpace=wrap;connectable=0;strokeColor=inherit;overflow=hidden;fillColor=none;top=0;left=0;bottom=0;right=0;pointerEvents=1;fontSize=16;" parent="blIayxbLOWrPhSkYNWvh-43" vertex="1">
          <mxGeometry width="87" height="55" as="geometry">
            <mxRectangle width="87" height="55" as="alternateBounds" />
          </mxGeometry>
        </mxCell>
        <mxCell id="blIayxbLOWrPhSkYNWvh-45" value="Palermo" style="shape=partialRectangle;html=1;whiteSpace=wrap;connectable=0;strokeColor=inherit;overflow=hidden;fillColor=none;top=0;left=0;bottom=0;right=0;pointerEvents=1;fontSize=16;" parent="blIayxbLOWrPhSkYNWvh-43" vertex="1">
          <mxGeometry x="87" width="86" height="55" as="geometry">
            <mxRectangle width="86" height="55" as="alternateBounds" />
          </mxGeometry>
        </mxCell>
        <mxCell id="blIayxbLOWrPhSkYNWvh-53" value="Serrano 1300" style="shape=partialRectangle;html=1;whiteSpace=wrap;connectable=0;strokeColor=inherit;overflow=hidden;fillColor=none;top=0;left=0;bottom=0;right=0;pointerEvents=1;fontSize=16;" parent="blIayxbLOWrPhSkYNWvh-43" vertex="1">
          <mxGeometry x="173" width="86" height="55" as="geometry">
            <mxRectangle width="86" height="55" as="alternateBounds" />
          </mxGeometry>
        </mxCell>
        <mxCell id="8OeubPXYCS4JBSS8x12q-5" style="shape=tableRow;horizontal=0;startSize=0;swimlaneHead=0;swimlaneBody=0;strokeColor=inherit;top=0;left=0;bottom=0;right=0;collapsible=0;dropTarget=0;fillColor=none;points=[[0,0.5],[1,0.5]];portConstraint=eastwest;fontSize=16;" vertex="1" parent="blIayxbLOWrPhSkYNWvh-34">
          <mxGeometry y="187" width="259" height="55" as="geometry" />
        </mxCell>
        <mxCell id="8OeubPXYCS4JBSS8x12q-6" value="098" style="shape=partialRectangle;html=1;whiteSpace=wrap;connectable=0;strokeColor=inherit;overflow=hidden;fillColor=none;top=0;left=0;bottom=0;right=0;pointerEvents=1;fontSize=16;" vertex="1" parent="8OeubPXYCS4JBSS8x12q-5">
          <mxGeometry width="87" height="55" as="geometry">
            <mxRectangle width="87" height="55" as="alternateBounds" />
          </mxGeometry>
        </mxCell>
        <mxCell id="8OeubPXYCS4JBSS8x12q-7" value="Villa Crespo" style="shape=partialRectangle;html=1;whiteSpace=wrap;connectable=0;strokeColor=inherit;overflow=hidden;fillColor=none;top=0;left=0;bottom=0;right=0;pointerEvents=1;fontSize=16;" vertex="1" parent="8OeubPXYCS4JBSS8x12q-5">
          <mxGeometry x="87" width="86" height="55" as="geometry">
            <mxRectangle width="86" height="55" as="alternateBounds" />
          </mxGeometry>
        </mxCell>
        <mxCell id="8OeubPXYCS4JBSS8x12q-8" value="lambaré 1754" style="shape=partialRectangle;html=1;whiteSpace=wrap;connectable=0;strokeColor=inherit;overflow=hidden;fillColor=none;top=0;left=0;bottom=0;right=0;pointerEvents=1;fontSize=16;" vertex="1" parent="8OeubPXYCS4JBSS8x12q-5">
          <mxGeometry x="173" width="86" height="55" as="geometry">
            <mxRectangle width="86" height="55" as="alternateBounds" />
          </mxGeometry>
        </mxCell>
        <mxCell id="blIayxbLOWrPhSkYNWvh-60" value="" style="edgeStyle=orthogonalEdgeStyle;rounded=0;orthogonalLoop=1;jettySize=auto;html=1;entryX=0;entryY=0.5;entryDx=0;entryDy=0;" parent="1" source="blIayxbLOWrPhSkYNWvh-57" target="C-vyLk0tnHw3VtMMgP7b-24" edge="1">
          <mxGeometry relative="1" as="geometry">
            <mxPoint x="410" y="530" as="targetPoint" />
            <Array as="points">
              <mxPoint x="375" y="600" />
              <mxPoint x="375" y="495" />
            </Array>
          </mxGeometry>
        </mxCell>
        <mxCell id="blIayxbLOWrPhSkYNWvh-61" value="&lt;font style=&quot;font-size: 20px;&quot;&gt;&lt;b&gt;&lt;u&gt;(1-N)&lt;/u&gt;&lt;/b&gt;&lt;/font&gt;" style="text;html=1;align=center;verticalAlign=middle;whiteSpace=wrap;rounded=0;" parent="1" vertex="1">
          <mxGeometry x="380" y="-20" width="60" height="30" as="geometry" />
        </mxCell>
      </root>
    </mxGraphModel>
  </diagram>
</mxfile>
